<svg width="20" height="20" viewBox="0 0 20 20" fill="none" xmlns="http://www.w3.org/2000/svg">
<path fill-rule="evenodd" clip-rule="evenodd" d="M19 18C19.5523 18 20 18.4477 20 19C20 19.5523 19.5523 20 19 20H1C0.447715 20 0 19.5523 0 19C0 18.4477 0.447715 18 1 18H19ZM1.70711 5.29289L5.70711 9.29289C6.09763 9.68342 6.09763 10.3166 5.70711 10.7071L1.70711 14.7071C1.07714 15.3371 0 14.8909 0 14V6C0 5.1091 1.07714 4.66293 1.70711 5.29289ZM19 13C19.5523 13 20 13.4477 20 14C20 14.5523 19.5523 15 19 15H11C10.4477 15 10 14.5523 10 14C10 13.4477 10.4477 13 11 13H19ZM19 9C19.5523 9 20 9.44771 20 10C20 10.5523 19.5523 11 19 11H11C10.4477 11 10 10.5523 10 10C10 9.44771 10.4477 9 11 9H19ZM19 5C19.5523 5 20 5.44772 20 6C20 6.55228 19.5523 7 19 7H11C10.4477 7 10 6.55228 10 6C10 5.44772 10.4477 5 11 5H19ZM19 0C19.5523 0 20 0.447715 20 1C20 1.55228 19.5523 2 19 2H1C0.447715 2 0 1.55228 0 1C0 0.447715 0.447715 0 1 0H19Z" fill="#58A6FF"/>
</svg>
