<svg width="21" height="20" viewBox="0 0 21 20" fill="none" xmlns="http://www.w3.org/2000/svg">
<path fill-rule="evenodd" clip-rule="evenodd" d="M5.002 20C3.34515 20 2.002 18.6569 2.002 17V11H1.002C0.1111 11 -0.335067 9.92286 0.294898 9.29289L9.2949 0.292893C9.68542 -0.0976311 10.3186 -0.0976311 10.7091 0.292893L19.7091 9.29289C20.3391 9.92286 19.8929 11 19.002 11H18.002V17C18.002 18.6569 16.6589 20 15.002 20H5.002ZM10.7091 3.12132C10.3186 2.7308 9.68542 2.7308 9.2949 3.12132L4.21025 8.20597C3.80878 8.60743 4.002 9.43225 4.002 10V17C4.002 17.5523 4.44972 18 5.002 18L6.0025 17.9995C6.55459 17.9992 7.002 17.5516 7.002 16.9995L7.002 14C7.002 12.8954 7.89744 12 9.002 12H11.002C12.1066 12 13.002 12.8954 13.002 14L13.002 16.9995C13.002 17.5516 13.4494 17.9992 14.0015 17.9995L15.002 18C15.5543 18 16.002 17.5523 16.002 17V10C16.002 9.43225 16.1952 8.60743 15.7938 8.20597L10.7091 3.12132ZM11 14.001H9.00002L9.00001 18H11L11 14.001Z" fill="#58A6FF"/>
</svg>
