<svg width="20" height="18" viewBox="0 0 20 18" fill="none" xmlns="http://www.w3.org/2000/svg">
<path fill-rule="evenodd" clip-rule="evenodd" d="M6.272 1.95283C5.174 1.95283 4.077 2.34983 3.241 3.14483C2.441 3.90683 2 4.91783 2 5.99183C2 7.06483 2.441 8.07583 3.241 8.83783L10 15.2698L16.759 8.83783C17.559 8.07583 18 7.06483 18 5.99183C18 4.91883 17.559 3.90683 16.759 3.14483C15.088 1.55483 12.368 1.55483 10.697 3.14483L10 3.80883L9.303 3.14483C8.467 2.34983 7.37 1.95283 6.272 1.95283ZM10 17.9998L1.847 10.2408C0.656 9.10783 0 7.59883 0 5.99183C0 4.38483 0.656 2.87583 1.847 1.74183C4.067 -0.371173 7.552 -0.561173 10 1.16883C12.448 -0.561173 15.933 -0.371173 18.153 1.74183C19.344 2.87583 20 4.38483 20 5.99183C20 7.59883 19.344 9.10783 18.153 10.2408L10 17.9998Z" fill="#58A6FF"/>
</svg>
