<svg width="21" height="16" viewBox="0 0 21 16" fill="none" xmlns="http://www.w3.org/2000/svg">
<path fill-rule="evenodd" clip-rule="evenodd" d="M14.7071 0.292893L14.6129 0.209705C14.2206 -0.0953203 13.6534 -0.0675907 13.2929 0.292893L13.2097 0.387101C12.9047 0.779392 12.9324 1.34662 13.2929 1.70711L16.585 5H5L4.88338 5.00673C4.38604 5.06449 4 5.48716 4 6C4 6.55228 4.44772 7 5 7H19L19.1136 6.99402C19.9277 6.90718 20.3097 5.89547 19.7071 5.29289L14.7071 0.292893ZM16.002 10C16.002 9.44771 15.5543 9 15.002 9H1.002L0.888374 9.00598C0.0743371 9.09282 -0.307677 10.1045 0.294898 10.7071L5.2949 15.7071L5.38911 15.7903C5.7814 16.0953 6.34863 16.0676 6.70911 15.7071L6.7923 15.6129C7.09733 15.2206 7.0696 14.6534 6.70911 14.2929L3.417 11H15.002L15.1186 10.9933C15.616 10.9355 16.002 10.5128 16.002 10Z" fill="#58A6FF"/>
</svg>
